<?xml version="1.0" encoding="UTF-8" standalone="no"?>
<!-- Created with Inkscape (http://www.inkscape.org/) -->

<svg
   xmlns:dc="http://purl.org/dc/elements/1.1/"
   xmlns:cc="http://creativecommons.org/ns#"
   xmlns:rdf="http://www.w3.org/1999/02/22-rdf-syntax-ns#"
   xmlns:svg="http://www.w3.org/2000/svg"
   xmlns="http://www.w3.org/2000/svg"
   xmlns:sodipodi="http://sodipodi.sourceforge.net/DTD/sodipodi-0.dtd"
   xmlns:inkscape="http://www.inkscape.org/namespaces/inkscape"
   sodipodi:docname="heart_outline.svg"
   inkscape:version="0.92.2 5c3e80d, 2017-08-06"
   id="svg8"
   version="1.1"
   viewBox="0 0 34.069122 31.749886"
   height="31.749886mm"
   width="34.069122mm">
  <sodipodi:namedview
     fit-margin-bottom="0"
     fit-margin-right="0"
     fit-margin-left="0"
     fit-margin-top="0"
     inkscape:window-maximized="1"
     inkscape:window-y="0"
     inkscape:window-x="44"
     inkscape:window-height="724"
     inkscape:window-width="1322"
     showgrid="false"
     inkscape:current-layer="layer1"
     inkscape:document-units="mm"
     inkscape:cy="64.356843"
     inkscape:cx="55.511637"
     inkscape:zoom="4.2007397"
     inkscape:pageshadow="2"
     inkscape:pageopacity="0.0"
     borderopacity="1.0"
     bordercolor="#666666"
     pagecolor="#ffffff"
     id="base" />
  <defs
     id="defs2" />
  <metadata
     id="metadata5">
    <rdf:RDF>
      <cc:Work
         rdf:about="">
        <dc:format>image/svg+xml</dc:format>
        <dc:type
           rdf:resource="http://purl.org/dc/dcmitype/StillImage" />
        <dc:title></dc:title>
      </cc:Work>
    </rdf:RDF>
  </metadata>
  <g
     transform="translate(-89.859662,-122.14719)"
     id="layer1"
     inkscape:groupmode="layer"
     inkscape:label="Layer 1">
    <path
       style="fill:none;stroke:#000000;stroke-width:0.64297801;stroke-miterlimit:4;stroke-dasharray:none;stroke-opacity:1"
       d="M64.34375 119.56641L64.43555 119.67773L65.371097 118.54883L66.203128 117.32227L67.003909 116.07617L68.054691 114.50781L69.18555 112.99219L70.371097 111.52539L71.601565 110.09766L72.865237 108.70117L74.156253 107.32617L75.472659 105.9668L76.802737 104.62891L78.150394 103.30273L79.507815 101.98828L80.87305 100.68945L82.250003 99.394531L83.634769 98.109375L85.021487 96.832031L86.417972 95.558594L87.818362 94.291016L89.222659 93.027344L90.628909 91.769531L92.041019 90.515625L93.425784 89.285156L94.804691 88.054688L96.181644 86.818359L97.554691 85.582031L98.927737 84.335938L100.289063 83.089844L101.644533 81.837891L102.998053 80.574219L104.339843 79.302734L105.673833 78.015625L106.992193 76.71875L108.292973 75.40625L109.578123 74.070312L110.837893 72.716797L112.070313 71.335938L113.273443 69.931641L114.445313 68.496094L115.583983 67.037109L116.691413 65.552734L117.740233 64.097656L118.767583 62.621094L119.763673 61.126953L120.726563 59.609375L121.648443 58.072266L122.523443 56.509766L123.349613 54.919922L124.119143 53.300781L124.830083 51.650391L125.472663 49.976562L126.044923 48.277344L126.550783 46.556641L126.990233 44.814453L127.363283 43.0625L127.677733 41.294922L127.939453 39.517578L128.150393 37.734375L128.320313 35.951172L128.427733 34.097656L128.433733 32.240234L128.336033 30.384766L128.132903 28.542969L127.818453 26.710938L127.394623 24.902344L126.861423 23.121094L126.224703 21.378906L125.482513 19.677734L124.642673 18.021484L123.711033 16.416016L122.691503 14.861328L121.591893 13.365234L120.416113 11.923828L119.177823 10.542969L117.937593 9.2851562L116.632903 8.0839844L115.269623 6.9492188L113.845793 5.8925781L112.363373 4.9160156L110.830173 4.0253906L109.250093 3.2246094L107.625093 2.5097656L105.966893 1.8847656L104.281343 1.3457031L102.511813 0.93164062L100.709073 0.65820312L98.894624 0.48046875L97.072359 0.38085935L95.250093 0.34765625L93.425874 0.38085935L91.607515 0.48046875L89.792969 0.65625L87.992188 0.9296875L86.21875 1.3457031L84.513672 1.8984375L82.835938 2.5410156L81.197266 3.2734375L79.59375 4.0878906L78.033203 4.9863281L76.521484 5.9609375L75.0625 7.0078125L73.662109 8.1269531L72.314453 9.3222656L71.035156 10.583984L69.824219 11.912109L68.693359 13.306641L67.642578 14.763672L66.683594 16.283203L65.994141 17.417969L65.271484 18.53125L64.435547 19.554688L64.343747 19.443359L64.34375 119.56641"
       transform="matrix(0.26458333,0,0,0.26458333,89.859662,122.14719)"
       id="path4721" />
    <path
       style="fill:none;stroke:#000000;stroke-width:0.17012127;stroke-miterlimit:4;stroke-dasharray:none;stroke-opacity:1"
       d="M106.88394 153.78247L106.88394 127.29158L106.68757 127.05128L106.49637 126.75776L106.31395 126.45804L106.06384 126.06995L105.78944 125.69943L105.49592 125.34389L105.18637 125.00231L104.86288 124.67468L104.52492 124.35997L104.17403 124.06129L103.80971 123.77913L103.42886 123.51765L103.03147 123.28459L102.58963 123.06186L102.1385 122.85981L101.67599 122.68256L101.20315 122.53321L100.72205 122.41591L100.23526 122.32961L99.743296 122.27281L99.249786 122.24181L98.755242 122.23281L98.280336 122.24281L97.80698 122.27381L97.335174 122.32751L96.866985 122.40601L96.402414 122.5104L95.945078 122.64217L95.497043 122.80134L95.059344 122.98841L94.63508 123.20183L94.224769 123.44109L93.828928 123.70516L93.449106 123.98989L93.085821 124.29479L92.737005 124.61828L92.404209 124.95624L92.078647 125.3185L91.771689 125.6978L91.484885 126.09261L91.220818 126.50085L90.978973 126.92357L90.760898 127.35971L90.568145 127.80672L90.40123 128.26354L90.259637 128.73069L90.144398 129.20456L90.055518 129.6836L89.992988 130.16678L89.955268 130.65254L89.942868 131.13933L89.953718 131.62612L89.988338 132.1124L90.044668 132.59712L90.122178 133.07771L90.219328 133.55572L90.3356 134.02804L90.469442 134.49623L90.620337 134.95925L90.787252 135.4171L90.969153 135.86876L91.165524 136.31524L91.374813 136.75501L91.592888 137.18444L91.821814 137.60922L92.061076 138.02625L92.31274 138.43656L92.576807 138.84015L92.852242 139.23444L93.13853 139.62202L93.435153 140.0008L93.74056 140.37339L94.054236 140.73823L94.37463 141.09789L94.701742 141.45239L95.032988 141.80069L95.368368 142.14486L95.707882 142.48541L96.051014 142.82234L96.397245 143.1572L96.746062 143.49L97.097461 143.82073L97.449894 144.14835L97.804395 144.47547L98.159929 144.80051L98.516496 145.12401L98.875131 145.44698L99.233765 145.76841L99.592916 146.0888L99.95 146.40765L100.30605 146.72597L100.6621 147.04637L101.01609 147.36676L101.37007 147.68922L101.72302 148.01272L102.07442 148.33776L102.42375 148.66384L102.77205 148.99198L103.11828 149.32271L103.46141 149.65603L103.80145 149.99141L104.13889 150.33196L104.47066 150.67561L104.79777 151.02442L105.11764 151.38047L105.42925 151.74479L105.72794 152.11789L106.01061 152.5034L106.2721 152.90441L106.46795 153.21963L106.67362 153.52866L106.88394 153.78291L106.88394 153.78247"
       id="path40"
       inkscape:connector-curvature="0" />
  </g>
</svg>
