  0
SECTION
  2
HEADER
  9
$ACADVER
  1
AC1014
  9
$HANDSEED
  5
FFFF
  9
$MEASUREMENT
 70
     1
  0
ENDSEC
  0
SECTION
  2
TABLES
  0
TABLE
  2
VPORT
  5
8
330
0
100
AcDbSymbolTable
 70
     4
  0
VPORT
  5
2E
330
8
100
AcDbSymbolTableRecord
100
AcDbViewportTableRecord
  2
*ACTIVE
 70
     0
 10
0.0
 20
0.0
 11
1.0
 21
1.0
 12
210.0
 22
148.5
 13
0.0
 23
0.0
 14
10.0
 24
10.0
 15
10.0
 25
10.0
 16
0.0
 26
0.0
 36
1.0
 17
0.0
 27
0.0
 37
0.0
 40
341.0
 41
1.24
 42
50.0
 43
0.0
 44
0.0
 50
0.0
 51
0.0
 71
     0
 72
   100
 73
     1
 74
     3
 75
     0
 76
     0
 77
     0
 78
     0
  0
ENDTAB
  0
TABLE
  2
LTYPE
  5
5
330
0
100
AcDbSymbolTable
 70
     1
  0
LTYPE
  5
14
330
5
100
AcDbSymbolTableRecord
100
AcDbLinetypeTableRecord
  2
BYBLOCK
 70
     0
  3

 72
    65
 73
     0
 40
0.0
  0
LTYPE
  5
15
330
5
100
AcDbSymbolTableRecord
100
AcDbLinetypeTableRecord
  2
BYLAYER
 70
     0
  3

 72
    65
 73
     0
 40
0.0
  0
LTYPE
  5
16
330
5
100
AcDbSymbolTableRecord
100
AcDbLinetypeTableRecord
  2
CONTINUOUS
 70
     0
  3
Solid line
 72
    65
 73
     0
 40
0.0
  0
ENDTAB
  0
TABLE
  2
LAYER
  5
2
100
AcDbSymbolTable
 70
2
  0
LAYER
  5
50
100
AcDbSymbolTableRecord
100
AcDbLayerTableRecord
  2
0
 70
0
  6
CONTINUOUS
  0
LAYER
  5
51
100
AcDbSymbolTableRecord
100
AcDbLayerTableRecord
  2
Layer_1
 70
0
  6
CONTINUOUS
  0
ENDTAB
  0
TABLE
  2
STYLE
  5
3
330
0
100
AcDbSymbolTable
 70
     1
  0
STYLE
  5
11
330
3
100
AcDbSymbolTableRecord
100
AcDbTextStyleTableRecord
  2
STANDARD
 70
     0
 40
0.0
 41
1.0
 50
0.0
 71
     0
 42
2.5
  3
txt
  4

  0
ENDTAB
  0
TABLE
  2
VIEW
  5
6
330
0
100
AcDbSymbolTable
 70
     0
  0
ENDTAB
  0
TABLE
  2
UCS
  5
7
330
0
100
AcDbSymbolTable
 70
     0
  0
ENDTAB
  0
TABLE
  2
APPID
  5
9
330
0
100
AcDbSymbolTable
 70
     2
  0
APPID
  5
12
330
9
100
AcDbSymbolTableRecord
100
AcDbRegAppTableRecord
  2
ACAD
 70
     0
  0
ENDTAB
  0
TABLE
  2
DIMSTYLE
  5
A
330
0
100
AcDbSymbolTable
 70
     1
  0
DIMSTYLE
105
27
330
A
100
AcDbSymbolTableRecord
100
AcDbDimStyleTableRecord
  2
ISO-25
 70
     0
  3

  4

  5

  6

  7

 40
1.0
 41
2.5
 42
0.625
 43
3.75
 44
1.25
 45
0.0
 46
0.0
 47
0.0
 48
0.0
140
2.5
141
2.5
142
0.0
143
0.03937007874016
144
1.0
145
0.0
146
1.0
147
0.625
 71
     0
 72
     0
 73
     0
 74
     0
 75
     0
 76
     0
 77
     1
 78
     8
170
     0
171
     3
172
     1
173
     0
174
     0
175
     0
176
     0
177
     0
178
     0
270
     2
271
     2
272
     2
273
     2
274
     3
340
11
275
     0
280
     0
281
     0
282
     0
283
     0
284
     8
285
     0
286
     0
287
     3
288
     0
  0
ENDTAB
  0
TABLE
  2
BLOCK_RECORD
  5
1
330
0
100
AcDbSymbolTable
 70
     1
  0
BLOCK_RECORD
  5
1F
330
1
100
AcDbSymbolTableRecord
100
AcDbBlockTableRecord
  2
*MODEL_SPACE
  0
BLOCK_RECORD
  5
1B
330
1
100
AcDbSymbolTableRecord
100
AcDbBlockTableRecord
  2
*PAPER_SPACE
  0
ENDTAB
  0
ENDSEC
  0
SECTION
  2
BLOCKS
  0
BLOCK
  5
20
330
1F
100
AcDbEntity
  8
0
100
AcDbBlockBegin
  2
*MODEL_SPACE
 70
     0
 10
0.0
 20
0.0
 30
0.0
  3
*MODEL_SPACE
  1

  0
ENDBLK
  5
21
330
1F
100
AcDbEntity
  8
0
100
AcDbBlockEnd
  0
BLOCK
  5
1C
330
1B
100
AcDbEntity
 67
     1
  8
0
100
AcDbBlockBegin
  2
*PAPER_SPACE
  1

  0
ENDBLK
  5
1D
330
1B
100
AcDbEntity
 67
     1
  8
0
100
AcDbBlockEnd
  0
ENDSEC
  0
SECTION
  2
ENTITIES
  0
LWPOLYLINE
  5
100
100
AcDbEntity
  8
Layer_1
 62
7
100
AcDbPolyline
 90
228
 70
1
 10
0.670247
 20
0.004512
 30
0.0
 10
0.671204
 20
0.003353
 30
0.0
 10
0.680949
 20
0.015112
 30
0.0
 10
0.689616
 20
0.027889
 30
0.0
 10
0.697957
 20
0.040869
 30
0.0
 10
0.708903
 20
0.057206
 30
0.0
 10
0.720683
 20
0.072994
 30
0.0
 10
0.733032
 20
0.088273
 30
0.0
 10
0.745850
 20
0.103145
 30
0.0
 10
0.759013
 20
0.117692
 30
0.0
 10
0.772461
 20
0.132015
 30
0.0
 10
0.786174
 20
0.146175
 30
0.0
 10
0.800029
 20
0.160111
 30
0.0
 10
0.814067
 20
0.173925
 30
0.0
 10
0.828206
 20
0.187618
 30
0.0
 10
0.842428
 20
0.201147
 30
0.0
 10
0.856771
 20
0.214636
 30
0.0
 10
0.871195
 20
0.228023
 30
0.0
 10
0.885640
 20
0.241329
 30
0.0
 10
0.900187
 20
0.254594
 30
0.0
 10
0.914775
 20
0.267797
 30
0.0
 10
0.929403
 20
0.280961
 30
0.0
 10
0.944051
 20
0.294063
 30
0.0
 10
0.958761
 20
0.307124
 30
0.0
 10
0.973185
 20
0.319942
 30
0.0
 10
0.987549
 20
0.332759
 30
0.0
 10
1.001892
 20
0.345638
 30
0.0
 10
1.016195
 20
0.358516
 30
0.0
 10
1.030497
 20
0.371496
 30
0.0
 10
1.044678
 20
0.384476
 30
0.0
 10
1.058797
 20
0.397517
 30
0.0
 10
1.072896
 20
0.410681
 30
0.0
 10
1.086873
 20
0.423925
 30
0.0
 10
1.100769
 20
0.437333
 30
0.0
 10
1.114502
 20
0.450842
 30
0.0
 10
1.128052
 20
0.464514
 30
0.0
 10
1.141439
 20
0.478430
 30
0.0
 10
1.154561
 20
0.492529
 30
0.0
 10
1.167399
 20
0.506913
 30
0.0
 10
1.179932
 20
0.521541
 30
0.0
 10
1.192139
 20
0.536495
 30
0.0
 10
1.204000
 20
0.551692
 30
0.0
 10
1.215536
 20
0.567155
 30
0.0
 10
1.226461
 20
0.582312
 30
0.0
 10
1.237162
 20
0.597692
 30
0.0
 10
1.247538
 20
0.613256
 30
0.0
 10
1.257568
 20
0.629065
 30
0.0
 10
1.267171
 20
0.645076
 30
0.0
 10
1.276286
 20
0.661352
 30
0.0
 10
1.284892
 20
0.677913
 30
0.0
 10
1.292908
 20
0.694779
 30
0.0
 10
1.300313
 20
0.711971
 30
0.0
 10
1.307007
 20
0.729406
 30
0.0
 10
1.312968
 20
0.747107
 30
0.0
 10
1.318237
 20
0.765031
 30
0.0
 10
1.322815
 20
0.783178
 30
0.0
 10
1.326701
 20
0.801428
 30
0.0
 10
1.329976
 20
0.819840
 30
0.0
 10
1.332703
 20
0.838354
 30
0.0
 10
1.334900
 20
0.856929
 30
0.0
 10
1.336670
 20
0.875504
 30
0.0
 10
1.337789
 20
0.894812
 30
0.0
 10
1.337851
 20
0.914160
 30
0.0
 10
1.336834
 20
0.933488
 30
0.0
 10
1.334718
 20
0.952673
 30
0.0
 10
1.331442
 20
0.971757
 30
0.0
 10
1.327027
 20
0.990596
 30
0.0
 10
1.321473
 20
1.009151
 30
0.0
 10
1.314841
 20
1.027299
 30
0.0
 10
1.307109
 20
1.045019
 30
0.0
 10
1.298361
 20
1.062272
 30
0.0
 10
1.288657
 20
1.078995
 30
0.0
 10
1.278036
 20
1.095190
 30
0.0
 10
1.266582
 20
1.110774
 30
0.0
 10
1.254334
 20
1.125789
 30
0.0
 10
1.241436
 20
1.140173
 30
0.0
 10
1.228517
 20
1.153275
 30
0.0
 10
1.214926
 20
1.165787
 30
0.0
 10
1.200725
 20
1.177608
 30
0.0
 10
1.185894
 20
1.188614
 30
0.0
 10
1.170452
 20
1.198787
 30
0.0
 10
1.154481
 20
1.208064
 30
0.0
 10
1.138022
 20
1.216406
 30
0.0
 10
1.121095
 20
1.223852
 30
0.0
 10
1.103822
 20
1.230363
 30
0.0
 10
1.086264
 20
1.235978
 30
0.0
 10
1.067831
 20
1.240291
 30
0.0
 10
1.049053
 20
1.243139
 30
0.0
 10
1.030152
 20
1.244991
 30
0.0
 10
1.011170
 20
1.246028
 30
0.0
 10
0.992188
 20
1.246374
 30
0.0
 10
0.973186
 20
1.246028
 30
0.0
 10
0.954245
 20
1.244991
 30
0.0
 10
0.935343
 20
1.243160
 30
0.0
 10
0.916585
 20
1.240311
 30
0.0
 10
0.898112
 20
1.235978
 30
0.0
 10
0.880351
 20
1.230220
 30
0.0
 10
0.862874
 20
1.223527
 30
0.0
 10
0.845805
 20
1.215897
 30
0.0
 10
0.829102
 20
1.207413
 30
0.0
 10
0.812846
 20
1.198055
 30
0.0
 10
0.797099
 20
1.187902
 30
0.0
 10
0.781901
 20
1.176997
 30
0.0
 10
0.767314
 20
1.165340
 30
0.0
 10
0.753276
 20
1.152889
 30
0.0
 10
0.739950
 20
1.139746
 30
0.0
 10
0.727336
 20
1.125911
 30
0.0
 10
0.715556
 20
1.111385
 30
0.0
 10
0.704610
 20
1.096207
 30
0.0
 10
0.694621
 20
1.080379
 30
0.0
 10
0.687439
 20
1.068558
 30
0.0
 10
0.679911
 20
1.056962
 30
0.0
 10
0.671204
 20
1.046301
 30
0.0
 10
0.670247
 20
1.047461
 30
0.0
 10
0.670247
 20
0.004512
 30
0.0
 10
0.670247
 20
1.047460
 30
0.0
 10
0.662516
 20
1.056921
 30
0.0
 10
0.654989
 20
1.068477
 30
0.0
 10
0.647807
 20
1.080277
 30
0.0
 10
0.637960
 20
1.095556
 30
0.0
 10
0.627157
 20
1.110144
 30
0.0
 10
0.615601
 20
1.124141
 30
0.0
 10
0.603414
 20
1.137589
 30
0.0
 10
0.590678
 20
1.150488
 30
0.0
 10
0.577372
 20
1.162878
 30
0.0
 10
0.563558
 20
1.174637
 30
0.0
 10
0.549214
 20
1.185746
 30
0.0
 10
0.534220
 20
1.196040
 30
0.0
 10
0.518575
 20
1.205216
 30
0.0
 10
0.501180
 20
1.213985
 30
0.0
 10
0.483419
 20
1.221940
 30
0.0
 10
0.465210
 20
1.228918
 30
0.0
 10
0.446594
 20
1.234798
 30
0.0
 10
0.427653
 20
1.239416
 30
0.0
 10
0.408488
 20
1.242814
 30
0.0
 10
0.389119
 20
1.245050
 30
0.0
 10
0.369690
 20
1.246270
 30
0.0
 10
0.350220
 20
1.246625
 30
0.0
 10
0.331523
 20
1.246231
 30
0.0
 10
0.312887
 20
1.245010
 30
0.0
 10
0.294311
 20
1.242896
 30
0.0
 10
0.275879
 20
1.239806
 30
0.0
 10
0.257589
 20
1.235696
 30
0.0
 10
0.239583
 20
1.230508
 30
0.0
 10
0.221944
 20
1.224242
 30
0.0
 10
0.204712
 20
1.216877
 30
0.0
 10
0.188009
 20
1.208474
 30
0.0
 10
0.171855
 20
1.199055
 30
0.0
 10
0.156270
 20
1.188658
 30
0.0
 10
0.141317
 20
1.177448
 30
0.0
 10
0.127014
 20
1.165444
 30
0.0
 10
0.113281
 20
1.152709
 30
0.0
 10
0.100179
 20
1.139403
 30
0.0
 10
0.087362
 20
1.125141
 30
0.0
 10
0.075277
 20
1.110208
 30
0.0
 10
0.063985
 20
1.094664
 30
0.0
 10
0.053589
 20
1.078592
 30
0.0
 10
0.044067
 20
1.061949
 30
0.0
 10
0.035482
 20
1.044778
 30
0.0
 10
0.027893
 20
1.027179
 30
0.0
 10
0.021322
 20
1.009194
 30
0.0
 10
0.015747
 20
0.990803
 30
0.0
 10
0.011210
 20
0.972146
 30
0.0
 10
0.007711
 20
0.953286
 30
0.0
 10
0.005249
 20
0.934264
 30
0.0
 10
0.003764
 20
0.915139
 30
0.0
 10
0.003276
 20
0.895974
 30
0.0
 10
0.003703
 20
0.876809
 30
0.0
 10
0.005066
 20
0.857664
 30
0.0
 10
0.007284
 20
0.838581
 30
0.0
 10
0.010335
 20
0.819660
 30
0.0
 10
0.014160
 20
0.800841
 30
0.0
 10
0.018738
 20
0.782246
 30
0.0
 10
0.024007
 20
0.763813
 30
0.0
 10
0.029948
 20
0.745584
 30
0.0
 10
0.036519
 20
0.727558
 30
0.0
 10
0.043681
 20
0.709776
 30
0.0
 10
0.051412
 20
0.692198
 30
0.0
 10
0.059652
 20
0.674884
 30
0.0
 10
0.068237
 20
0.657978
 30
0.0
 10
0.077250
 20
0.641254
 30
0.0
 10
0.086670
 20
0.624836
 30
0.0
 10
0.096578
 20
0.608682
 30
0.0
 10
0.106974
 20
0.592792
 30
0.0
 10
0.117818
 20
0.577269
 30
0.0
 10
0.129089
 20
0.562010
 30
0.0
 10
0.140767
 20
0.547097
 30
0.0
 10
0.152791
 20
0.532429
 30
0.0
 10
0.165141
 20
0.518065
 30
0.0
 10
0.177755
 20
0.503905
 30
0.0
 10
0.190633
 20
0.489948
 30
0.0
 10
0.203674
 20
0.476236
 30
0.0
 10
0.216878
 20
0.462686
 30
0.0
 10
0.230245
 20
0.449278
 30
0.0
 10
0.243754
 20
0.436013
 30
0.0
 10
0.257385
 20
0.422830
 30
0.0
 10
0.271118
 20
0.409727
 30
0.0
 10
0.284953
 20
0.396707
 30
0.0
 10
0.298828
 20
0.383808
 30
0.0
 10
0.312785
 20
0.370929
 30
0.0
 10
0.326782
 20
0.358133
 30
0.0
 10
0.340820
 20
0.345396
 30
0.0
 10
0.354940
 20
0.332681
 30
0.0
 10
0.369059
 20
0.320026
 30
0.0
 10
0.383199
 20
0.307412
 30
0.0
 10
0.397257
 20
0.294859
 30
0.0
 10
0.411275
 20
0.282327
 30
0.0
 10
0.425293
 20
0.269713
 30
0.0
 10
0.439229
 20
0.257099
 30
0.0
 10
0.453166
 20
0.244404
 30
0.0
 10
0.467061
 20
0.231668
 30
0.0
 10
0.480896
 20
0.218871
 30
0.0
 10
0.494649
 20
0.206033
 30
0.0
 10
0.508362
 20
0.193114
 30
0.0
 10
0.521993
 20
0.180093
 30
0.0
 10
0.535502
 20
0.166970
 30
0.0
 10
0.548889
 20
0.153766
 30
0.0
 10
0.562174
 20
0.140359
 30
0.0
 10
0.575236
 20
0.126829
 30
0.0
 10
0.588114
 20
0.113097
 30
0.0
 10
0.600708
 20
0.099079
 30
0.0
 10
0.612976
 20
0.084736
 30
0.0
 10
0.624735
 20
0.070047
 30
0.0
 10
0.635864
 20
0.054869
 30
0.0
 10
0.646159
 20
0.039081
 30
0.0
 10
0.653870
 20
0.026671
 30
0.0
 10
0.661967
 20
0.014505
 30
0.0
 10
0.670247
 20
0.004495
 30
0.0
  0
ENDSEC
  0
SECTION
  2
OBJECTS
  0
DICTIONARY
  5
C
330
0
100
AcDbDictionary
  3
ACAD_GROUP
350
D
  3
ACAD_MLINESTYLE
350
17
  0
DICTIONARY
  5
D
330
C
100
AcDbDictionary
  0
DICTIONARY
  5
1A
330
C
100
AcDbDictionary
  0
DICTIONARY
  5
17
330
C
100
AcDbDictionary
  3
STANDARD
350
18
  0
DICTIONARY
  5
19
330
C
100
AcDbDictionary
  0
ENDSEC
  0
EOF
